<?xml version="1.0" encoding="utf-8" ?>
<svg xmlns="http://www.w3.org/2000/svg" xmlns:xlink="http://www.w3.org/1999/xlink" width="1024" height="1024">
	<path fill="#FEFEFE" d="M0 0L1024 0L1024 1024L0 1024L0 0Z"/>
	<path fill="#1A1819" d="M502.773 138.224Q507.191 138.105 511.611 138.091Q516.031 138.078 520.45 138.169Q524.869 138.26 529.284 138.455Q533.7 138.651 538.109 138.952Q542.519 139.252 546.92 139.657Q551.321 140.062 555.712 140.571Q560.102 141.081 564.479 141.694Q568.857 142.307 573.218 143.024Q577.579 143.741 581.922 144.561Q586.265 145.381 590.588 146.304Q594.91 147.227 599.21 148.252Q603.509 149.278 607.783 150.404Q612.056 151.531 616.302 152.759Q620.548 153.987 624.764 155.316Q628.979 156.644 633.162 158.072Q637.345 159.5 641.492 161.026Q645.64 162.553 649.751 164.178Q653.861 165.803 657.932 167.524Q662.002 169.246 666.031 171.064Q670.06 172.882 674.044 174.795Q678.029 176.707 681.967 178.714Q685.905 180.721 689.794 182.821Q693.683 184.92 697.522 187.112Q701.36 189.303 705.145 191.585Q708.931 193.867 712.661 196.238Q716.391 198.608 720.064 201.067Q723.737 203.526 727.35 206.071Q730.964 208.616 734.516 211.246Q738.068 213.876 741.557 216.59Q745.045 219.304 748.469 222.099Q751.892 224.895 755.248 227.771Q758.604 230.647 761.891 233.602Q770.459 241.181 778.511 249.305Q786.563 257.43 794.064 266.065Q801.566 274.7 808.485 283.808Q815.404 292.917 821.711 302.46C860.909 360.816 880.69 424.331 884.852 494.295Q885.105 498.813 885.249 503.337Q885.392 507.86 885.425 512.385Q885.458 516.911 885.381 521.435Q885.304 525.96 885.117 530.482Q884.93 535.003 884.633 539.519Q884.336 544.035 883.93 548.542Q883.523 553.049 883.007 557.545Q882.49 562.041 881.865 566.523Q881.239 571.005 880.505 575.471Q879.771 579.936 878.928 584.383Q878.085 588.829 877.134 593.253Q876.183 597.678 875.125 602.078Q874.067 606.478 872.902 610.851Q871.737 615.224 870.466 619.567Q869.196 623.911 867.819 628.222Q866.443 632.533 864.963 636.809Q863.482 641.086 861.898 645.325Q860.313 649.564 858.626 653.763Q856.939 657.963 855.151 662.12Q853.362 666.277 851.473 670.389Q849.583 674.501 847.594 678.566Q845.606 682.631 843.519 686.647Q841.432 690.662 839.247 694.626Q837.063 698.589 834.783 702.499Q832.503 706.408 830.129 710.26Q827.754 714.113 825.287 717.906Q822.819 721.7 820.26 725.433Q817.701 729.165 815.052 732.834Q812.403 736.503 809.666 740.107Q806.928 743.711 804.104 747.246Q801.279 750.782 798.37 754.249Q795.46 757.715 792.467 761.109Q789.882 763.986 787.239 766.809Q784.596 769.632 781.896 772.4Q779.196 775.168 776.439 777.881Q773.683 780.593 770.872 783.249Q768.061 785.904 765.196 788.502Q762.331 791.099 759.413 793.637Q756.495 796.175 753.526 798.653Q750.557 801.131 747.538 803.548Q744.519 805.965 741.451 808.319Q738.384 810.673 735.268 812.965Q732.153 815.256 728.991 817.483Q725.83 819.71 722.623 821.871Q719.417 824.033 716.166 826.129Q712.916 828.224 709.624 830.253Q706.331 832.281 702.998 834.242Q699.665 836.203 696.293 838.095Q692.92 839.988 689.509 841.81Q686.099 843.633 682.652 845.386Q679.204 847.139 675.722 848.82Q672.24 850.502 668.724 852.112Q665.208 853.722 661.659 855.26Q658.111 856.798 654.532 858.263Q650.953 859.727 647.345 861.119Q643.737 862.51 640.101 863.827Q636.465 865.144 632.803 866.387Q629.141 867.629 625.454 868.797Q621.767 869.964 618.057 871.055Q614.347 872.147 610.616 873.162Q606.884 874.178 603.133 875.117Q599.381 876.055 595.611 876.917Q591.842 877.779 588.055 878.564Q584.268 879.348 580.466 880.055C561.33 883.617 542.342 885.22 522.946 886.346L522.471 886.363C506.252 886.877 489.631 885.76 473.511 884.007Q469.677 883.594 465.852 883.102Q462.027 882.611 458.213 882.042Q454.398 881.473 450.597 880.827Q446.795 880.18 443.007 879.457Q439.219 878.733 435.447 877.932Q431.674 877.132 427.919 876.255Q424.164 875.377 420.427 874.424Q416.69 873.471 412.974 872.441Q409.257 871.412 405.563 870.308Q401.868 869.203 398.196 868.023Q394.525 866.844 390.878 865.59Q387.231 864.336 383.611 863.008Q379.99 861.68 376.397 860.279Q372.804 858.877 369.241 857.403Q365.677 855.929 362.145 854.382Q358.612 852.836 355.111 851.218Q351.611 849.6 348.144 847.911Q344.677 846.223 341.245 844.464Q337.813 842.705 334.418 840.876Q331.022 839.048 327.665 837.151Q324.307 835.253 320.989 833.288Q317.671 831.323 314.394 829.291Q311.116 827.259 307.881 825.16Q304.645 823.062 301.453 820.898Q298.261 818.734 295.114 816.506Q291.966 814.278 288.865 811.986Q285.763 809.694 282.709 807.339Q279.655 804.985 276.649 802.569Q273.644 800.152 270.688 797.676Q267.732 795.199 264.827 792.662Q261.922 790.126 259.07 787.531Q256.217 784.936 253.418 782.283Q250.181 779.215 247.019 776.07Q243.857 772.925 240.773 769.704Q237.688 766.483 234.682 763.189Q231.675 759.894 228.75 756.528Q225.824 753.162 222.981 749.726Q220.137 746.291 217.378 742.787Q214.618 739.284 211.944 735.715Q209.27 732.146 206.683 728.513Q204.096 724.88 201.597 721.186Q199.099 717.492 196.69 713.738Q194.281 709.985 191.964 706.174Q189.647 702.364 187.423 698.498Q185.198 694.633 183.068 690.715Q180.938 686.796 178.903 682.828Q176.868 678.86 174.929 674.843Q172.991 670.827 171.15 666.765Q169.309 662.702 167.567 658.597Q165.825 654.492 164.182 650.345Q162.54 646.199 160.998 642.014Q159.456 637.829 158.016 633.608Q156.576 629.387 155.238 625.133Q153.9 620.879 152.666 616.593Q151.431 612.308 150.301 607.994Q149.17 603.679 148.144 599.339Q147.118 594.999 146.197 590.635Q145.276 586.272 144.461 581.887Q143.646 577.502 142.937 573.099Q142.228 568.696 141.626 564.277Q141.023 559.858 140.528 555.426Q140.033 550.994 139.644 546.551Q139.256 542.108 138.976 537.657Q138.695 533.206 138.522 528.75Q138.342 524.051 138.28 519.349Q138.217 514.647 138.273 509.945Q138.328 505.242 138.501 500.543Q138.673 495.844 138.963 491.15Q139.254 486.457 139.661 481.772Q140.068 477.087 140.593 472.414Q141.117 467.741 141.758 463.082Q142.399 458.423 143.156 453.782Q143.914 449.141 144.787 444.52Q145.66 439.9 146.648 435.302Q147.636 430.705 148.739 426.133Q149.842 421.562 151.059 417.02Q152.275 412.477 153.605 407.967Q154.935 403.456 156.378 398.98Q157.82 394.505 159.374 390.066Q160.927 385.628 162.591 381.229Q164.256 376.831 166.029 372.476Q167.803 368.121 169.685 363.811Q171.567 359.502 173.556 355.241Q175.545 350.98 177.64 346.769Q179.734 342.559 181.934 338.403Q184.133 334.247 186.436 330.146Q188.739 326.046 191.143 322.005Q193.548 317.964 196.053 313.984Q198.557 310.004 201.161 306.088Q203.764 302.172 206.465 298.322Q209.165 294.472 211.961 290.691Q214.757 286.91 217.647 283.2Q220.536 279.49 223.518 275.854Q226.499 272.217 229.57 268.656Q232.642 265.095 235.801 261.612Q238.961 258.129 242.206 254.726Q245.34 251.388 248.557 248.129Q251.773 244.869 255.069 241.69Q258.364 238.512 261.738 235.416Q265.112 232.32 268.561 229.308Q272.01 226.296 275.533 223.371Q279.056 220.446 282.65 217.609Q286.244 214.772 289.908 212.025Q293.571 209.278 297.302 206.622Q301.032 203.967 304.827 201.404Q308.622 198.842 312.479 196.375Q316.336 193.907 320.254 191.536Q324.171 189.165 328.146 186.891Q332.12 184.618 336.15 182.444Q340.18 180.269 344.263 178.196Q348.345 176.122 352.478 174.15Q356.61 172.178 360.79 170.309Q364.971 168.44 369.196 166.675Q373.421 164.91 377.689 163.25Q381.956 161.591 386.264 160.037Q390.571 158.484 394.916 157.038Q399.26 155.591 403.639 154.253Q408.018 152.915 412.429 151.686Q416.84 150.457 421.28 149.337Q425.72 148.217 430.187 147.208Q434.653 146.199 439.143 145.3Q443.633 144.402 448.144 143.615Q452.655 142.828 457.184 142.153Q461.713 141.479 466.257 140.916Q470.801 140.354 475.358 139.904Q479.915 139.454 484.482 139.118Q489.048 138.781 493.622 138.558Q498.195 138.334 502.773 138.224Z"/>
	<path fill="#FD6522" d="M501.992 693.217C506.241 696.479 510.027 699.965 513.83 703.726C509.748 706.652 505.512 709.263 501.228 711.876L493.263 717.131C496.727 709.529 499.599 701.219 501.992 693.217Z"/>
	<path fill="#FD6522" d="M430.169 522.348C437.347 520.613 444.359 518.807 451.379 516.511C449.159 520.064 446.651 523.515 443.507 526.302C439.038 531.968 432.827 537.646 426.565 541.285L428.612 531.546C429.281 528.509 429.699 525.421 430.169 522.348Z"/>
	<path fill="#FEFEFE" d="M538.392 390.803C540.54 391.863 542.033 394.347 543.307 396.31C557.607 418.346 564.017 443.49 558.432 469.384C558.071 470.538 558.425 470.155 557.521 470.657C556.291 467.196 557.11 460.817 556.965 457.018C556.775 452.044 556.408 446.929 555.582 442.02C552.56 424.054 544.999 407.619 538.392 390.803Z"/>
	<path fill="#FD6522" d="M566.906 249.169C575.288 247.607 583.714 252.835 591.93 253.738C581.892 261.696 570.404 263.108 557.948 263.568C548.418 264.363 541.849 263.543 533.192 259.382C543.601 254.084 555.39 250.864 566.906 249.169Z"/>
	<path fill="#FEFEFE" d="M676.283 429.431C677.045 429.42 677.781 429.422 678.532 429.581C680.638 430.026 682.127 430.787 683.291 432.616C683.774 435.008 682.316 437.517 681.143 439.526C677.144 446.377 666.092 463.859 659.613 468.016C656.191 470.212 651.555 471 647.641 471.996C645.563 468.29 642.985 464.772 640.634 461.23C638.02 457.123 635.405 453.055 632.542 449.115C634.786 447.546 636.923 446.048 638.85 444.083C642.012 446.965 646.273 452.52 650.359 453.672C657.133 455.583 666.709 437.506 671.077 433.023C672.418 431.646 673.981 430.715 675.642 429.783L676.283 429.431Z"/>
	<path fill="#FEFEFE" d="M332.444 780.323C332.873 780.465 333.346 780.513 333.731 780.75C336.063 782.178 354.929 810.929 358.299 815.864Q350.445 821.044 342.509 826.097C339.522 824.564 336.631 822.752 333.723 821.071C322.926 814.587 312.261 808.079 301.818 801.033Q317.39 791.062 332.444 780.323Z"/>
	<path fill="#FD6522" d="M461.273 410.571C468.884 425.675 472.041 440.74 472.576 457.543C460.707 469.238 454.453 470.334 438.074 472.224C434.399 472.681 430.688 472.854 426.993 473.086C431.223 461.572 438.889 450.879 444.798 440.092C449.682 429.789 454.834 420.006 461.273 410.571Z"/>
	<path fill="#FEFEFE" d="M489.302 462.211C495.122 462.196 500.375 462.973 505.394 466.204Q505.885 466.526 506.36 466.872Q506.834 467.218 507.29 467.589Q507.746 467.959 508.182 468.353Q508.618 468.746 509.033 469.161Q509.448 469.576 509.842 470.012Q510.235 470.449 510.606 470.904Q510.976 471.36 511.323 471.834Q511.669 472.308 511.991 472.8Q512.313 473.291 512.609 473.798Q512.905 474.306 513.174 474.827Q513.444 475.349 513.686 475.884Q513.929 476.419 514.143 476.966Q514.358 477.513 514.544 478.07Q514.73 478.627 514.887 479.193Q515.044 479.759 515.172 480.332Q515.3 480.905 515.398 481.484Q515.5 482.066 515.572 482.652Q515.644 483.238 515.687 483.827Q515.73 484.416 515.744 485.006Q515.757 485.597 515.741 486.187Q515.725 486.778 515.679 487.366Q515.634 487.955 515.559 488.541Q515.484 489.127 515.38 489.708Q515.276 490.29 515.143 490.865Q515.01 491.44 514.849 492.008Q514.687 492.577 514.497 493.136Q514.308 493.695 514.09 494.244Q513.873 494.793 513.628 495.331Q513.384 495.868 513.113 496.393Q512.842 496.918 512.545 497.428Q512.248 497.939 511.926 498.434Q511.603 498.929 511.257 499.407C507.746 504.155 501.954 507.532 496.124 508.478C489.874 508.754 484.146 508.279 478.812 504.653Q478.321 504.314 477.847 503.952Q477.373 503.589 476.918 503.204Q476.462 502.818 476.026 502.411Q475.591 502.003 475.176 501.575Q474.76 501.146 474.367 500.697Q473.974 500.249 473.603 499.781Q473.232 499.314 472.885 498.828Q472.538 498.343 472.215 497.841Q471.893 497.34 471.595 496.822Q471.298 496.305 471.026 495.774Q470.755 495.243 470.51 494.699Q470.265 494.154 470.047 493.599Q469.829 493.043 469.639 492.478Q469.449 491.912 469.287 491.338Q469.126 490.764 468.992 490.182Q468.859 489.6 468.755 489.013Q468.657 488.43 468.589 487.842Q468.521 487.254 468.483 486.664Q468.445 486.073 468.438 485.482Q468.43 484.89 468.453 484.299Q468.476 483.708 468.529 483.118Q468.582 482.529 468.665 481.943Q468.748 481.358 468.861 480.777Q468.974 480.196 469.117 479.622Q469.259 479.048 469.431 478.482Q469.603 477.915 469.803 477.359Q470.004 476.802 470.233 476.257Q470.462 475.711 470.718 475.178Q470.975 474.645 471.258 474.126Q471.542 473.606 471.851 473.102Q472.161 472.598 472.496 472.11Q472.831 471.623 473.191 471.153C477.134 466.001 482.952 463.056 489.302 462.211Z"/>
	<path fill="#FEFEFE" d="M435.31 361.303Q436.652 361.152 438.003 361.152C450.383 361.059 461.432 367.47 469.93 376.084C490.107 396.537 498.633 424.302 498.515 452.496C494.59 452.391 484.767 454.355 482.755 454.001C482.382 453.936 482.123 453.586 481.807 453.378C480.566 428.833 472.197 404.149 455.581 385.754C444.835 373.855 433.113 370.115 417.388 369.347C422.841 364.194 427.904 361.938 435.31 361.303Z"/>
	<path fill="#FEFEFE" d="M694.17 365.154C703.501 366.937 712.537 370.258 721.533 373.259Q711.935 384.624 702.119 395.802C695.19 403.811 688.513 411.777 680.71 418.964C678.666 418.982 676.619 419.052 674.594 419.352C666.747 420.516 662.172 427.871 657.944 433.794C655.58 436.781 653.13 439.671 650.627 442.542C646.722 437.86 642.462 433.46 638.311 428.997Q657.475 407.415 676.383 385.608C682.282 378.763 687.294 371.087 694.17 365.154Z"/>
	<path fill="#FEFEFE" d="M622.363 452.303C625.802 453.109 637.841 473.394 640.4 477.353C635.62 480.79 631.244 485.365 626.831 489.296C618.265 496.926 609.569 504.453 601.155 512.248C595.956 517.065 591.013 522.425 585.085 526.351C582.123 528.312 579.4 529.608 575.807 529.888C567.316 530.55 558.704 526.225 552.456 520.81C552.464 517.321 552.763 513.85 553.024 510.373C553.886 503.48 554.167 496.479 554.578 489.548C562.733 481.049 566.237 472.055 568.177 460.59C570.685 466.174 573.603 471.443 575.702 477.221C573.148 478.807 570.03 480.478 568.377 483.062C567.543 484.368 566.887 486.425 567.408 487.965C567.897 489.414 568.279 489.615 569.51 490.369C571.266 490.427 572.243 490.025 573.76 489.149C579.251 485.978 584.259 481.49 589.302 477.649L622.363 452.303Z"/>
	<path fill="#FEFEFE" d="M372.279 454.911C385.194 461.424 398.56 467.134 411.799 472.951C403.471 473.052 395.319 472.674 387.038 471.756C385.61 473.301 383.6 475.128 383.43 477.357C383.351 478.387 383.832 479.515 384.627 480.178C387.481 482.556 395.025 482.261 398.59 482.364C418.899 482.949 438.446 481.053 458.503 478.099C458.42 485.678 459.438 492.541 461.408 499.858L461.426 500.136C460.782 501.431 459.848 501.789 458.603 502.495C438.457 513.924 410.383 515.765 387.619 515.638C380.898 515.6 373.501 515.834 367.012 513.869C363.224 512.721 359.943 510.591 358.144 506.971C351.442 493.491 367.472 469.131 371.975 455.826L372.279 454.911Z"/>
	<path fill="#FD6522" d="M415.111 379.208C423.602 377.449 431.33 379.167 438.533 383.89C445.476 388.444 451.582 394.81 456.121 401.742C447.725 410.974 443.881 421.62 438.411 432.557C432.648 444.079 425.8 455.875 417.704 465.914C406.35 460.482 394.791 455.269 383.567 449.596L376.135 446.728C382.233 434.576 388.411 422.45 394.339 410.214C398.711 401.19 402.586 389.62 408.902 381.893C410.598 379.818 412.561 379.461 415.111 379.208Z"/>
	<path fill="#FEFEFE" d="M340.657 496.335L347.068 497.186C347.909 504.149 349.02 512.658 354.631 517.49C366.617 527.813 398.577 525.452 413.89 524.425C414.641 530.383 414.463 536.626 414.596 542.632C414.864 554.756 415.221 567.324 414.362 579.412C403.891 581.096 392.295 580.585 381.714 580.007C369.594 579.345 358.956 576.507 350.639 567.131C338.567 553.522 340.916 535.781 340.949 519.009C340.964 511.421 340.26 503.946 340.657 496.335Z"/>
	<path fill="#FD6522" d="M500.465 205.797C517.823 204.611 534.054 208.653 547.331 220.297C554.116 226.248 558.884 232.893 562.464 241.154C547.966 244.305 526.476 249.943 514.389 258.284C507.528 263.018 501.736 268.925 495.341 274.217C488.753 272.54 482.677 271.982 476.514 275.606C475.876 275.981 475.296 276.411 474.703 276.852C468.766 283.308 466.416 290.607 464.107 298.898C456.088 290.78 451.939 280.433 450.18 269.254C447.908 254.817 450.292 240.527 459.06 228.604C469.228 214.777 483.936 208.347 500.465 205.797Z"/>
	<path fill="#FEFEFE" d="M523.372 265.533C529.265 268.201 534.322 270.933 539.708 274.595C546.148 273.606 552.674 273.032 559.152 272.337Q559.458 273.673 559.737 275.015C563.401 292.705 562.951 314.181 552.601 329.704C543.354 343.573 528.236 348.03 512.757 342.056C507.234 339.925 499.504 333.051 493.348 334.735C492.026 335.097 491.572 335.526 490.87 336.657C490.907 337.618 491.011 338.196 491.449 339.075C494.519 345.237 504.996 349.132 511.062 351.197Q510.995 361.664 510.614 372.125C510.412 374.372 510.533 376.749 510.499 379.012L485.057 379.001Q482.643 375.805 479.957 372.835Q477.271 369.864 474.333 367.143Q471.395 364.421 468.229 361.969Q465.062 359.516 461.692 357.353C463.303 355.789 464.901 354.226 466.009 352.25C470.712 343.864 470.862 328.343 471.555 318.667Q475.545 313.66 479.23 308.424C482.02 308.564 484.693 308.876 487.448 308.2C489.123 307.789 489.983 307.33 490.895 305.87C490.421 299.885 482.814 300.859 480.152 296.998C478.678 294.861 478.554 292.179 479.087 289.709C479.684 286.949 481.683 283.03 484.363 281.759C487.76 280.148 493.959 284.216 497.215 285.592C502.427 282.245 506.108 277.662 510.662 273.569C514.5 270.12 518.765 267.794 523.372 265.533Z"/>
	<path fill="#FEFEFE" d="M398.985 323.237Q430.275 323.095 461.562 323.504C461.347 326.333 461.176 329.221 460.71 332.019C459.512 339.209 454.758 346.425 448.812 350.706C439.148 350.76 428.994 351.109 419.995 354.984C413.099 357.954 408.006 362.97 403.558 368.909C395.03 380.298 389.807 393.971 383.603 406.679C377.079 420.045 370.003 433.322 364.547 447.17C359.267 459.664 355.261 473.04 348.977 485.035C345.163 484.727 342.33 483.72 338.977 481.992L339.485 400.946C339.503 388.776 337.973 366.422 340.436 355.583C342.107 348.228 346.213 340.729 351.238 335.133C364.326 320.558 381.51 324.16 398.985 323.237Z"/>
	<path fill="#FEFEFE" d="M428.149 625.233C434.628 630.059 443.61 641.085 450.334 647.26C464.912 660.648 480.658 672.908 494.889 686.661C489.529 697.837 485.482 710.031 480.884 721.572C477.05 731.194 472.176 741.113 469.291 751.03C457.687 758.902 445.38 765.763 433.276 772.827C420.278 780.413 407.375 788.075 394.242 795.435Q380.795 803.107 367.201 810.517C357.831 798.921 350.023 785.705 341.608 773.379C352.715 766.431 363.27 757.869 373.897 750.176C387.351 740.435 401.297 731.135 414.192 720.669C416.106 712.115 416.445 703.072 417.68 694.383C420.951 671.363 424.151 648.133 428.149 625.233Z"/>
	<path fill="#FD6522" d="M519.338 380.662C526.236 388.491 530.854 397.526 534.947 407.054C547.627 436.57 547.464 455.381 545.515 486.379Q543.512 514.674 540.884 542.918C539.531 558.106 538.371 573.392 536.391 588.512L476.934 588.509C466.385 588.507 455.721 588.833 445.184 588.434C438.052 589.112 430.672 588.758 423.514 588.716C423.276 576.979 425.077 565.474 426.678 553.885C429.943 551.198 433.721 549.149 437.45 547.192C437.988 547.872 438.544 548.655 439.184 549.239C440.181 550.146 441.118 550.385 442.448 550.358C449.237 550.218 459.799 534.411 464.283 529.403C467.708 523.914 471.406 518.664 475.275 513.483Q476.027 513.91 476.799 514.3Q477.571 514.69 478.361 515.042Q479.152 515.393 479.958 515.706Q480.765 516.018 481.586 516.291Q482.406 516.563 483.24 516.795Q484.073 517.027 484.917 517.218Q485.76 517.409 486.612 517.559Q487.464 517.708 488.322 517.815Q489.181 517.923 490.043 517.988Q490.906 518.053 491.77 518.076Q492.635 518.099 493.5 518.079Q494.364 518.06 495.227 517.998Q496.09 517.936 496.948 517.832Q497.807 517.728 498.66 517.582Q499.512 517.436 500.357 517.248Q501.201 517.061 502.035 516.832Q502.786 516.627 503.526 516.385Q504.265 516.144 504.992 515.865Q505.719 515.587 506.431 515.272Q507.143 514.958 507.838 514.609Q508.534 514.259 509.211 513.875Q509.888 513.491 510.545 513.074Q511.202 512.657 511.837 512.208Q512.473 511.758 513.085 511.278Q513.697 510.797 514.285 510.287Q514.872 509.776 515.434 509.237Q515.995 508.698 516.528 508.131Q517.062 507.565 517.567 506.972Q518.071 506.38 518.546 505.763Q519.02 505.146 519.464 504.506Q519.907 503.866 520.317 503.205Q520.728 502.544 521.105 501.863Q521.507 501.12 521.87 500.357Q522.234 499.595 522.559 498.815Q522.884 498.036 523.17 497.241Q523.455 496.446 523.701 495.637Q523.946 494.829 524.151 494.009Q524.355 493.19 524.518 492.361Q524.681 491.532 524.802 490.696Q524.924 489.86 525.003 489.019Q525.082 488.178 525.119 487.334Q525.156 486.49 525.15 485.645Q525.145 484.8 525.097 483.957Q525.049 483.114 524.959 482.274Q524.868 481.434 524.736 480.599Q524.604 479.765 524.43 478.939Q524.256 478.112 524.041 477.295Q523.826 476.478 523.57 475.673C521.074 467.543 515.591 461.692 509.144 456.388C508.31 449.954 508.149 443.458 507.366 437.006Q506.992 433.825 506.467 430.666Q505.942 427.507 505.266 424.377Q504.591 421.246 503.767 418.151Q502.943 415.057 501.972 412.005Q501.002 408.953 499.887 405.951Q498.771 402.949 497.514 400.003Q496.257 397.058 494.861 394.176Q493.465 391.293 491.933 388.481C498.919 388.645 511.144 390.439 516.502 385.318C517.752 384.123 518.531 382.175 519.338 380.662Z"/>
	<path fill="#FEFEFE" d="M522.6 598.233C525.039 598.246 527.42 598.211 529.853 597.979C535.811 604.759 542.196 611.183 548.279 617.857L586.356 659.951C593.418 667.707 606.845 680.653 611.699 689.47C614.652 694.835 622.81 739.043 624.65 747.762Q631.06 777.449 638.205 806.968C639.627 812.771 640.671 822.297 643.364 827.232C644.045 828.478 644.717 829.089 646.135 829.416C652.291 830.838 668.079 822.769 675.963 821.872C680.9 821.311 685 822.209 689.688 823.63C675.976 833.07 645.636 845.236 629.469 850.687C621.002 853.542 612.265 855.792 603.958 859.074C600.554 846.948 601.225 841.405 594.78 829.356C599.858 826.73 605.153 824.5 610.372 822.17C615.532 819.686 631.205 815.336 633.831 810.638C634.743 809.006 634.621 807.438 634.021 805.756C633.301 805.088 633.111 804.77 632.128 804.497C626.123 802.827 596.974 817.168 589.888 821.021C585.89 812.684 582.687 803.757 579.137 795.197L558.643 745.941C555.472 738.263 553.196 728.361 548.254 721.714C543.297 715.045 531.89 707.117 525.319 701.227L475.83 656.617C463.222 645.323 449.485 634.193 438.72 621.07C432.984 614.079 428.651 606.654 424.829 598.505L484.458 598.488C497.16 598.489 509.906 598.716 522.6 598.233Z"/>
	<path fill="#FD6522" d="M519.281 710.286C526.48 715.776 533.835 719.829 539.218 727.445C545.801 736.758 550.19 751.23 554.77 761.967Q565.999 787.844 576.574 813.995C582.949 829.471 589.293 844.803 594.393 860.758C584.919 863.332 574.95 864.924 565.248 866.381C522.286 872.829 480.355 870.398 437.872 862.125C406.696 854.717 382.28 846.219 353.215 832.631C360.996 824.816 379.049 815.839 389.263 809.789L452.495 772.499C459.576 768.379 469.662 764.682 475.131 758.56C480.317 752.755 482.569 742.84 484.982 735.603C496.877 727.97 508.031 718.843 519.281 710.286Z"/>
	<path fill="#FD6522" d="M159.324 566.702C174.086 573.582 187.903 582.776 201.832 591.194L263.632 628.318L353.978 682.933C368.357 691.621 383.396 699.617 397.338 708.974C400.316 710.972 402.64 713.476 405.04 716.115C388.947 725.611 373.507 737.193 358.31 748.071C337.2 764.194 314.599 778.412 293.664 794.711C290.112 792.216 286.721 789.262 283.394 786.472Q280.798 784.331 278.243 782.141Q275.688 779.95 273.175 777.712Q270.662 775.473 268.193 773.187Q265.723 770.901 263.298 768.568Q260.872 766.235 258.492 763.856Q256.111 761.477 253.777 759.053Q251.442 756.63 249.154 754.162Q246.866 751.694 244.626 749.183Q242.386 746.671 240.194 744.118Q238.001 741.565 235.859 738.97Q233.716 736.375 231.623 733.74Q229.53 731.104 227.487 728.43Q225.445 725.755 223.454 723.042Q221.463 720.328 219.524 717.578Q217.586 714.827 215.7 712.04Q213.814 709.253 211.981 706.43Q210.149 703.607 208.371 700.75Q206.593 697.893 204.87 695.002Q203.146 692.112 201.479 689.189Q199.811 686.266 198.199 683.312Q196.587 680.357 195.032 677.373Q193.477 674.388 191.98 671.375Q190.482 668.361 189.042 665.319Q187.602 662.278 186.22 659.209Q184.839 656.141 183.516 653.046Q182.193 649.952 180.929 646.833Q179.666 643.713 178.462 640.571Q177.258 637.428 176.115 634.263Q174.971 631.098 173.888 627.912Q172.806 624.725 171.784 621.519Q170.762 618.313 169.801 615.087Q168.841 611.862 167.942 608.619C164.345 595.423 160.505 580.244 159.324 566.702Z"/>
	<path fill="#FD6522" d="M766.949 513.423C773.026 517.082 778.511 522.257 783.932 526.807L808.288 547.188C825.599 561.608 843.614 574.954 860.361 590.063Q857.951 602.485 854.635 614.697C836.664 678.669 798.514 735.874 749.396 780.126C733.557 794.396 716.317 807.751 697.704 818.215C695.558 816.882 693.397 815.514 691.1 814.455C678.101 808.459 663.194 815.324 650.935 820.088C648.048 808.634 645.914 796.925 643.374 785.382L627.005 711.566C625.045 702.819 625.012 692.187 620.682 684.287C616.981 677.535 609.924 671.881 604.65 666.31C599.869 661.26 595.322 655.957 590.72 650.745C596.847 645.292 603.56 640.535 609.955 635.403L647.219 605.104C684.131 575.23 720.16 544.331 756.829 514.164Q757.77 554.333 757.49 594.512C749.094 600.854 720.382 621.742 715.754 628.542C714.807 629.934 714.23 632.128 714.89 633.755C715.409 635.033 716.045 635.191 717.211 635.639C723.785 635.26 750.308 611.919 757.51 606.567C757.796 633.643 757.402 660.744 757.297 687.82C757.248 700.308 756.411 713.883 757.472 726.233C757.677 728.61 758.116 731.123 759.316 733.222C760.125 734.637 760.917 735.231 762.45 735.703C763.37 735.458 763.789 735.256 764.484 734.562C766.073 732.976 766.708 730.147 766.939 728.005C767.545 722.385 767.094 716.374 767.065 710.719L767.029 680.741Q766.876 629.34 767.395 577.942C774.626 582.736 805.892 609.452 811.341 609.176C812.808 609.102 813.175 608.606 814.089 607.613C814.382 606.619 814.553 605.819 814.389 604.792C814.011 602.425 812.595 600.529 810.953 598.853C806.525 594.331 800.634 591.005 795.566 587.245C786.051 580.189 776.851 572.977 767.077 566.251C766.7 548.672 766.841 531.007 766.949 513.423Z"/>
	<path fill="#FEFEFE" d="M497.346 154.72Q506.516 154.36 515.693 154.46Q524.87 154.56 534.03 155.121Q543.191 155.682 552.311 156.701Q561.432 157.721 570.49 159.197Q574.027 159.768 577.552 160.412Q581.077 161.055 584.588 161.77Q588.099 162.485 591.594 163.271Q595.09 164.057 598.569 164.913Q602.048 165.77 605.509 166.698Q608.97 167.625 612.411 168.623Q615.853 169.621 619.273 170.688Q622.693 171.755 626.091 172.892Q629.489 174.029 632.863 175.234Q636.237 176.44 639.586 177.714Q642.935 178.988 646.257 180.329Q649.58 181.671 652.874 183.08Q656.168 184.489 659.433 185.965Q662.698 187.44 665.933 188.982Q669.167 190.524 672.369 192.131Q675.572 193.738 678.741 195.41Q681.91 197.082 685.044 198.818Q688.178 200.554 691.277 202.353Q694.375 204.152 697.436 206.014Q700.498 207.876 703.52 209.8Q706.543 211.724 709.526 213.709Q712.509 215.694 715.451 217.739Q718.393 219.784 721.293 221.889Q724.193 223.993 727.049 226.156Q729.905 228.319 732.717 230.54Q735.529 232.76 738.295 235.038Q741.062 237.315 743.781 239.648Q746.5 241.981 749.171 244.369Q751.843 246.757 754.465 249.199Q757.087 251.64 759.659 254.135Q762.231 256.629 764.752 259.176Q767.273 261.722 769.741 264.319C780.577 275.604 791.524 287.603 800.535 300.402C811.292 315.68 821.813 331.671 830.302 348.324C866.151 418.654 876.293 501.846 862.907 579.324C854.102 571.776 844.829 564.668 835.837 557.335L798.893 526.947C787.948 518.103 776.946 509.609 766.5 500.152C766.532 493.907 767.478 485.64 765.779 479.648C765.232 477.72 764.497 476.531 762.691 475.592C761.334 475.519 760.499 475.33 759.366 476.281C754.784 480.13 756.72 495.896 756.996 501.399C725.097 529.297 691.842 555.766 659.275 582.875Q634.501 603.664 609.221 623.835C601.072 630.391 593.016 637.605 584.402 643.511C569.554 628.927 557.28 611.814 542.227 597.318L542.739 596.528C544.3 594.165 544.993 591.844 545.559 589.099C547.04 581.92 547.334 574.289 548.006 566.986Q549.669 549.579 551.086 532.151C558.475 535.729 565.599 539.282 574.004 539.244C578.864 539.223 583.319 538.27 587.572 535.844C598.581 529.564 608.265 518.563 617.712 510.099C628.804 500.16 640.181 490.925 650.619 480.246C654.434 479.603 658.487 479.041 661.962 477.245C671.911 472.103 690.356 445 694.008 434.212C693.288 430.696 692.16 428.063 690.071 425.137C693.456 420.633 696.896 416.187 700.608 411.944C706.582 405.116 731.77 379.783 732.178 372.184C732.257 370.715 731.814 369.722 730.901 368.612C726.582 363.358 698.634 355.688 690.904 355.2C689.028 356.345 687.386 357.578 685.832 359.134C678.014 366.962 632.169 419.45 629.999 425.511C628.145 430.688 630.338 435.151 632.583 439.747L624.557 443.658C622.631 443.432 620.697 443.068 618.832 443.754C611.674 446.388 590.697 464.457 582.746 470.221C573.783 454.701 572.105 451.645 568.45 434.271C562.395 405.485 545.569 382.421 521.153 366.418L520.501 365.882C519.314 363.481 520.44 357.246 520.584 354.421C524.624 354.56 528.686 354.476 532.684 353.833C543.556 352.083 552.465 346.179 558.862 337.26C572.733 317.92 572.091 294.046 568.252 271.611C576.236 270.16 584.011 269.778 591.155 265.484C597.289 261.797 600.946 256.913 602.67 250.003C594.384 244.323 581.917 242.253 572.069 240.551C566.57 228.313 559.071 217.528 548.333 209.315C533.867 198.249 514.996 194.333 497.105 196.74C479.485 199.11 462.126 209.071 451.465 223.323C437.299 242.259 436.141 272.733 447.862 293.148C450.639 297.985 460.149 306.92 460.464 311.98C460.581 313.869 452.539 313.381 450.908 313.378L409 313.488C395.193 313.459 379.734 311.849 366.306 315.309C358.116 317.419 350.507 322.044 344.486 327.924C332.142 339.976 330.372 355.763 330.243 372.241C330.13 386.741 330.633 401.278 330.7 415.786L330.532 485.6L330.478 521.492C330.455 531.084 329.826 541.006 331.651 550.467C333.467 559.88 338.475 569.075 345.243 575.842C362.855 593.452 390.482 590.033 413.334 589.98C414.792 598.177 417.081 605.731 420.299 613.411C414.525 643.313 412.065 673.804 406.434 703.701C396.51 695.524 385.068 689.447 374.078 682.845L324.627 653.211L157.306 552.221C156.395 547.112 155.945 541.843 155.626 536.664Q155.356 532.247 155.193 527.826Q155.031 523.404 154.977 518.979Q154.922 514.555 154.976 510.13Q155.03 505.706 155.191 501.284Q155.353 496.862 155.623 492.446Q155.892 488.029 156.269 483.62Q156.647 479.212 157.131 474.813Q157.616 470.415 158.208 466.03Q158.8 461.645 159.499 457.276Q160.198 452.907 161.003 448.556Q161.809 444.205 162.72 439.875Q163.631 435.545 164.648 431.239Q165.665 426.932 166.786 422.652Q167.908 418.372 169.133 414.12Q170.359 409.868 171.688 405.648Q173.017 401.427 174.449 397.241Q175.881 393.054 177.414 388.903Q178.948 384.753 180.582 380.641Q182.217 376.529 183.951 372.458Q185.685 368.387 187.518 364.36Q189.351 360.333 191.282 356.352Q193.213 352.37 195.24 348.437Q197.268 344.504 199.391 340.622Q201.514 336.74 203.731 332.911Q205.948 329.081 208.258 325.307Q210.567 321.533 212.969 317.817Q215.37 314.1 217.861 310.443Q220.353 306.786 222.932 303.191Q225.512 299.596 228.179 296.066Q230.846 292.535 233.598 289.07Q236.35 285.605 239.186 282.209Q242.022 278.812 244.94 275.486Q247.28 272.856 249.67 270.273Q252.06 267.689 254.5 265.152Q256.939 262.615 259.428 260.126Q261.916 257.636 264.452 255.196Q266.988 252.755 269.571 250.364Q272.154 247.973 274.783 245.633Q277.412 243.292 280.086 241.003Q282.759 238.714 285.477 236.477Q288.194 234.24 290.955 232.056Q293.715 229.873 296.517 227.743Q299.319 225.613 302.162 223.537Q305.005 221.462 307.887 219.442Q310.77 217.422 313.691 215.459Q316.612 213.495 319.571 211.589Q322.529 209.682 325.524 207.833Q328.519 205.984 331.549 204.193Q334.58 202.403 337.644 200.671Q340.708 198.94 343.806 197.268Q346.903 195.596 350.032 193.984Q353.161 192.373 356.321 190.822Q359.481 189.272 362.67 187.783Q365.859 186.293 369.077 184.866Q372.294 183.439 375.539 182.075Q378.783 180.71 382.053 179.409Q385.324 178.108 388.619 176.87Q391.914 175.632 395.232 174.458Q398.55 173.285 401.891 172.176Q405.231 171.066 408.592 170.022Q411.953 168.978 415.334 167.999Q418.715 167.02 422.114 166.107Q425.513 165.193 428.93 164.346Q432.346 163.499 435.778 162.718C456.017 158.231 476.684 155.98 497.346 154.72Z"/>
</svg>
